<svg width="9.25in" height="6.125in" viewBox="0 0 9.25 6.125" xmlns="http://www.w3.org/2000/svg" version="1.1" preserveAspectRatio="xMidYMid meet"><g id="svgGroup" stroke-linecap="round" fill-rule="evenodd" font-size="9pt" stroke="#000" stroke-width="0.25mm" fill="none" style="stroke:#000;stroke-width:0.25mm;fill:none"><path d="M 0 3.125 L 0 3.784 L 0.236 3.784 L 0.236 4.345 L 0 4.345 L 0 4.905 L 0.236 4.905 L 0.236 5.466 L 0 5.466 L 0 6.026 L 0 6.125 L 0.659 6.125 L 0.659 5.889 L 1.22 5.889 L 1.22 6.125 L 1.78 6.125 L 1.78 5.889 L 2.341 5.889 L 2.341 6.125 L 2.901 6.125 L 3 6.125 L 3 5.466 L 2.764 5.466 L 2.764 4.905 L 3 4.905 L 3 4.345 L 2.764 4.345 L 2.764 3.784 L 3 3.784 L 3 3.224 L 3 3.125 L 0 3.125 Z" id="front_outsideCutPath" stroke="#FF0000" stroke-width="0.1" style="stroke:#FF0000;stroke-width:0.1" vector-effect="non-scaling-stroke"/><path d="M 1.937 4.852 L 1.889 4.852 L 1.889 4.644 Q 1.889 4.619 1.881 4.602 A 0.058 0.058 0 0 0 1.871 4.585 Q 1.856 4.57 1.829 4.567 A 0.129 0.129 0 0 0 1.815 4.566 A 0.147 0.147 0 0 0 1.787 4.568 Q 1.757 4.574 1.741 4.593 Q 1.72 4.618 1.718 4.673 A 0.311 0.311 0 0 0 1.718 4.683 L 1.718 4.852 L 1.669 4.852 L 1.669 4.531 L 1.708 4.531 L 1.716 4.574 L 1.719 4.574 A 0.098 0.098 0 0 1 1.757 4.539 A 0.118 0.118 0 0 1 1.761 4.538 A 0.132 0.132 0 0 1 1.807 4.525 A 0.159 0.159 0 0 1 1.821 4.525 A 0.192 0.192 0 0 1 1.853 4.527 Q 1.871 4.53 1.885 4.537 A 0.087 0.087 0 0 1 1.908 4.553 Q 1.93 4.574 1.936 4.615 A 0.212 0.212 0 0 1 1.937 4.642 L 1.937 4.852 Z M 1.003 4.531 L 1.003 4.568 L 0.921 4.568 L 0.921 4.852 L 0.873 4.852 L 0.873 4.568 L 0.815 4.568 L 0.815 4.546 L 0.873 4.529 L 0.873 4.511 A 0.197 0.197 0 0 1 0.877 4.466 Q 0.891 4.405 0.95 4.395 A 0.148 0.148 0 0 1 0.976 4.393 A 0.157 0.157 0 0 1 0.998 4.394 Q 1.009 4.396 1.021 4.399 A 0.315 0.315 0 0 1 1.036 4.403 L 1.023 4.442 A 0.236 0.236 0 0 0 1.005 4.437 Q 0.996 4.434 0.987 4.433 A 0.105 0.105 0 0 0 0.975 4.433 A 0.066 0.066 0 0 0 0.959 4.434 A 0.042 0.042 0 0 0 0.934 4.451 A 0.056 0.056 0 0 0 0.927 4.466 Q 0.921 4.483 0.921 4.51 L 0.921 4.531 L 1.003 4.531 Z M 2.185 4.811 L 2.185 4.849 Q 2.177 4.852 2.162 4.855 A 0.211 0.211 0 0 1 2.148 4.857 Q 2.14 4.857 2.134 4.857 Q 2.041 4.857 2.041 4.759 L 2.041 4.568 L 1.995 4.568 L 1.995 4.545 L 2.041 4.525 L 2.061 4.456 L 2.089 4.456 L 2.089 4.531 L 2.182 4.531 L 2.182 4.568 L 2.089 4.568 L 2.089 4.757 A 0.098 0.098 0 0 0 2.091 4.774 Q 2.092 4.784 2.096 4.791 A 0.047 0.047 0 0 0 2.103 4.802 A 0.045 0.045 0 0 0 2.131 4.817 A 0.065 0.065 0 0 0 2.141 4.817 A 0.16 0.16 0 0 0 2.164 4.816 A 0.144 0.144 0 0 0 2.166 4.815 A 0.263 0.263 0 0 0 2.173 4.814 Q 2.176 4.814 2.179 4.813 A 0.101 0.101 0 0 0 2.184 4.812 Z M 1.246 4.528 L 1.24 4.573 A 0.214 0.214 0 0 0 1.224 4.57 Q 1.217 4.569 1.21 4.569 A 0.114 0.114 0 0 0 1.205 4.569 A 0.084 0.084 0 0 0 1.142 4.596 A 0.115 0.115 0 0 0 1.138 4.601 A 0.111 0.111 0 0 0 1.111 4.663 A 0.148 0.148 0 0 0 1.11 4.679 L 1.11 4.852 L 1.062 4.852 L 1.062 4.531 L 1.102 4.531 L 1.107 4.59 L 1.11 4.59 A 0.164 0.164 0 0 1 1.128 4.564 A 0.125 0.125 0 0 1 1.153 4.542 A 0.097 0.097 0 0 1 1.208 4.525 A 0.223 0.223 0 0 1 1.228 4.526 A 0.163 0.163 0 0 1 1.246 4.528 Z M 1.584 4.691 Q 1.584 4.769 1.544 4.813 A 0.13 0.13 0 0 1 1.468 4.855 A 0.189 0.189 0 0 1 1.435 4.857 A 0.156 0.156 0 0 1 1.389 4.851 A 0.135 0.135 0 0 1 1.358 4.837 A 0.132 0.132 0 0 1 1.31 4.786 A 0.16 0.16 0 0 1 1.307 4.779 A 0.18 0.18 0 0 1 1.292 4.73 A 0.243 0.243 0 0 1 1.289 4.691 Q 1.289 4.631 1.311 4.591 A 0.134 0.134 0 0 1 1.328 4.568 Q 1.367 4.525 1.437 4.525 A 0.163 0.163 0 0 1 1.485 4.531 A 0.127 0.127 0 0 1 1.544 4.569 A 0.151 0.151 0 0 1 1.577 4.634 Q 1.583 4.656 1.584 4.683 A 0.285 0.285 0 0 1 1.584 4.691 Z M 1.339 4.691 A 0.246 0.246 0 0 0 1.341 4.726 Q 1.347 4.762 1.364 4.785 Q 1.388 4.817 1.436 4.817 A 0.113 0.113 0 0 0 1.466 4.813 A 0.079 0.079 0 0 0 1.508 4.785 Q 1.527 4.761 1.532 4.721 A 0.256 0.256 0 0 0 1.533 4.691 Q 1.533 4.651 1.523 4.624 A 0.1 0.1 0 0 0 1.508 4.598 A 0.08 0.08 0 0 0 1.459 4.568 A 0.123 0.123 0 0 0 1.435 4.566 A 0.116 0.116 0 0 0 1.407 4.569 A 0.077 0.077 0 0 0 1.363 4.597 A 0.101 0.101 0 0 0 1.348 4.628 Q 1.343 4.641 1.341 4.658 A 0.257 0.257 0 0 0 1.339 4.691 Z" id="front_labelLayer" stroke="#777777" fill="#777777" style="stroke:#777777;fill:#777777" vector-effect="non-scaling-stroke"/><path d="M 3.361 3.125 L 3.361 3.784 L 3.125 3.784 L 3.125 4.345 L 3.361 4.345 L 3.361 4.905 L 3.125 4.905 L 3.125 5.466 L 3.361 5.466 L 3.361 6.026 L 3.361 6.125 L 3.784 6.125 L 3.784 5.889 L 4.345 5.889 L 4.345 6.125 L 4.905 6.125 L 4.905 5.889 L 5.466 5.889 L 5.466 6.125 L 5.889 6.125 L 5.889 5.466 L 6.125 5.466 L 6.125 4.905 L 5.889 4.905 L 5.889 4.345 L 6.125 4.345 L 6.125 3.784 L 5.889 3.784 L 5.889 3.224 L 5.889 3.125 L 3.361 3.125 Z" id="left_outsideCutPath" stroke="#FF0000" stroke-width="0.1" style="stroke:#FF0000;stroke-width:0.1" vector-effect="non-scaling-stroke"/><path d="M 4.838 4.531 L 4.838 4.568 L 4.757 4.568 L 4.757 4.852 L 4.708 4.852 L 4.708 4.568 L 4.651 4.568 L 4.651 4.546 L 4.708 4.529 L 4.708 4.511 A 0.197 0.197 0 0 1 4.713 4.466 Q 4.727 4.405 4.785 4.395 A 0.148 0.148 0 0 1 4.811 4.393 A 0.157 0.157 0 0 1 4.834 4.394 Q 4.844 4.396 4.856 4.399 A 0.315 0.315 0 0 1 4.871 4.403 L 4.859 4.442 A 0.236 0.236 0 0 0 4.84 4.437 Q 4.831 4.434 4.823 4.433 A 0.105 0.105 0 0 0 4.811 4.433 A 0.066 0.066 0 0 0 4.795 4.434 A 0.042 0.042 0 0 0 4.77 4.451 A 0.056 0.056 0 0 0 4.762 4.466 Q 4.757 4.483 4.757 4.51 L 4.757 4.531 L 4.838 4.531 Z M 4.611 4.669 L 4.611 4.7 L 4.39 4.7 A 0.195 0.195 0 0 0 4.393 4.733 Q 4.4 4.766 4.418 4.786 A 0.088 0.088 0 0 0 4.465 4.812 A 0.134 0.134 0 0 0 4.494 4.815 A 0.257 0.257 0 0 0 4.591 4.796 A 0.294 0.294 0 0 0 4.597 4.793 L 4.597 4.837 A 0.292 0.292 0 0 1 4.57 4.847 A 0.223 0.223 0 0 1 4.548 4.853 Q 4.53 4.856 4.507 4.857 A 0.396 0.396 0 0 1 4.493 4.857 A 0.189 0.189 0 0 1 4.445 4.852 A 0.134 0.134 0 0 1 4.38 4.814 A 0.143 0.143 0 0 1 4.346 4.751 Q 4.339 4.725 4.339 4.694 Q 4.339 4.616 4.377 4.57 A 0.125 0.125 0 0 1 4.468 4.525 A 0.172 0.172 0 0 1 4.48 4.525 A 0.148 0.148 0 0 1 4.522 4.53 A 0.113 0.113 0 0 1 4.576 4.564 A 0.136 0.136 0 0 1 4.606 4.626 A 0.198 0.198 0 0 1 4.611 4.669 Z M 5.045 4.811 L 5.045 4.849 Q 5.037 4.852 5.021 4.855 A 0.211 0.211 0 0 1 5.008 4.857 Q 5 4.857 4.994 4.857 Q 4.901 4.857 4.901 4.759 L 4.901 4.568 L 4.855 4.568 L 4.855 4.545 L 4.901 4.525 L 4.921 4.456 L 4.949 4.456 L 4.949 4.531 L 5.042 4.531 L 5.042 4.568 L 4.949 4.568 L 4.949 4.757 A 0.098 0.098 0 0 0 4.951 4.774 Q 4.952 4.784 4.956 4.791 A 0.047 0.047 0 0 0 4.963 4.802 A 0.045 0.045 0 0 0 4.991 4.817 A 0.065 0.065 0 0 0 5.001 4.817 A 0.16 0.16 0 0 0 5.024 4.816 A 0.144 0.144 0 0 0 5.026 4.815 A 0.263 0.263 0 0 0 5.033 4.814 Q 5.036 4.814 5.039 4.813 A 0.101 0.101 0 0 0 5.044 4.812 Z M 4.254 4.396 L 4.254 4.852 L 4.205 4.852 L 4.205 4.396 L 4.254 4.396 Z M 4.391 4.66 L 4.559 4.66 A 0.166 0.166 0 0 0 4.557 4.634 Q 4.552 4.607 4.538 4.59 A 0.067 0.067 0 0 0 4.498 4.567 A 0.1 0.1 0 0 0 4.48 4.565 A 0.096 0.096 0 0 0 4.452 4.569 A 0.074 0.074 0 0 0 4.418 4.591 A 0.096 0.096 0 0 0 4.399 4.623 Q 4.393 4.639 4.391 4.66 Z" id="left_labelLayer" stroke="#777777" fill="#777777" style="stroke:#777777;fill:#777777" vector-effect="non-scaling-stroke"/><path d="M 0 0 L 0 0.659 L 0.236 0.659 L 0.236 1.22 L 0 1.22 L 0 1.78 L 0.236 1.78 L 0.236 2.341 L 0 2.341 L 0 2.901 L 0 3 L 0.659 3 L 0.659 2.764 L 1.22 2.764 L 1.22 3 L 1.78 3 L 1.78 2.764 L 2.341 2.764 L 2.341 3 L 2.901 3 L 3 3 L 3 2.341 L 2.764 2.341 L 2.764 1.78 L 3 1.78 L 3 1.22 L 2.764 1.22 L 2.764 0.659 L 3 0.659 L 3 0.099 L 3 0 L 0 0 Z" id="back_outsideCutPath" stroke="#FF0000" stroke-width="0.1" style="stroke:#FF0000;stroke-width:0.1" vector-effect="non-scaling-stroke"/><path d="M 1.911 1.561 L 1.913 1.561 A 0.288 0.288 0 0 1 1.92 1.551 Q 1.928 1.54 1.94 1.527 A 1.046 1.046 0 0 1 1.951 1.514 L 2.055 1.404 L 2.113 1.404 L 1.983 1.541 L 2.122 1.725 L 2.063 1.725 L 1.95 1.573 L 1.913 1.605 L 1.913 1.725 L 1.865 1.725 L 1.865 1.269 L 1.913 1.269 L 1.913 1.511 A 0.324 0.324 0 0 1 1.913 1.52 Q 1.913 1.535 1.911 1.561 Z M 0.927 1.684 L 0.923 1.684 L 0.913 1.725 L 0.878 1.725 L 0.878 1.269 L 0.927 1.269 L 0.927 1.38 A 1.014 1.014 0 0 1 0.926 1.414 Q 0.926 1.43 0.924 1.445 A 0.612 0.612 0 0 1 0.924 1.447 L 0.927 1.447 Q 0.961 1.399 1.027 1.399 A 0.149 0.149 0 0 1 1.069 1.404 A 0.111 0.111 0 0 1 1.126 1.442 A 0.143 0.143 0 0 1 1.151 1.49 Q 1.157 1.51 1.159 1.534 A 0.312 0.312 0 0 1 1.161 1.564 Q 1.161 1.643 1.125 1.687 A 0.115 0.115 0 0 1 1.044 1.73 A 0.165 0.165 0 0 1 1.027 1.731 A 0.148 0.148 0 0 1 0.99 1.726 A 0.128 0.128 0 0 1 0.97 1.719 A 0.108 0.108 0 0 1 0.927 1.684 Z M 1.479 1.725 L 1.443 1.725 L 1.433 1.679 L 1.431 1.679 A 0.202 0.202 0 0 1 1.415 1.698 Q 1.399 1.713 1.383 1.72 A 0.112 0.112 0 0 1 1.36 1.727 Q 1.349 1.73 1.336 1.731 A 0.219 0.219 0 0 1 1.324 1.731 Q 1.276 1.731 1.249 1.706 A 0.08 0.08 0 0 1 1.225 1.664 A 0.122 0.122 0 0 1 1.222 1.636 A 0.084 0.084 0 0 1 1.27 1.557 Q 1.305 1.538 1.367 1.535 A 0.474 0.474 0 0 1 1.377 1.534 L 1.432 1.533 L 1.432 1.513 Q 1.432 1.489 1.426 1.474 A 0.054 0.054 0 0 0 1.415 1.457 A 0.049 0.049 0 0 0 1.395 1.444 Q 1.387 1.441 1.377 1.44 A 0.12 0.12 0 0 0 1.363 1.439 A 0.158 0.158 0 0 0 1.327 1.443 Q 1.31 1.447 1.292 1.455 A 0.326 0.326 0 0 0 1.273 1.463 L 1.258 1.426 A 0.224 0.224 0 0 1 1.301 1.408 A 0.255 0.255 0 0 1 1.31 1.406 Q 1.338 1.399 1.366 1.399 A 0.205 0.205 0 0 1 1.398 1.401 Q 1.414 1.403 1.427 1.409 A 0.083 0.083 0 0 1 1.452 1.424 A 0.077 0.077 0 0 1 1.471 1.455 Q 1.479 1.476 1.479 1.506 L 1.479 1.725 Z M 1.794 1.415 L 1.779 1.456 A 0.216 0.216 0 0 0 1.755 1.448 A 0.258 0.258 0 0 0 1.743 1.445 Q 1.727 1.442 1.714 1.441 A 0.108 0.108 0 0 0 1.71 1.441 A 0.108 0.108 0 0 0 1.666 1.449 Q 1.62 1.47 1.613 1.54 A 0.269 0.269 0 0 0 1.612 1.566 Q 1.612 1.605 1.622 1.632 A 0.101 0.101 0 0 0 1.636 1.657 A 0.077 0.077 0 0 0 1.686 1.687 A 0.118 0.118 0 0 0 1.707 1.688 A 0.204 0.204 0 0 0 1.763 1.68 A 0.251 0.251 0 0 0 1.789 1.671 L 1.789 1.714 A 0.138 0.138 0 0 1 1.755 1.726 Q 1.739 1.73 1.721 1.731 A 0.267 0.267 0 0 1 1.708 1.731 A 0.182 0.182 0 0 1 1.663 1.726 A 0.123 0.123 0 0 1 1.6 1.688 Q 1.567 1.651 1.562 1.587 A 0.294 0.294 0 0 1 1.562 1.567 Q 1.562 1.508 1.582 1.469 A 0.134 0.134 0 0 1 1.6 1.442 A 0.126 0.126 0 0 1 1.669 1.402 A 0.191 0.191 0 0 1 1.711 1.398 A 0.219 0.219 0 0 1 1.757 1.403 A 0.243 0.243 0 0 1 1.771 1.406 Q 1.784 1.41 1.793 1.415 Z M 1.02 1.439 A 0.137 0.137 0 0 0 0.994 1.442 Q 0.979 1.445 0.967 1.451 A 0.065 0.065 0 0 0 0.949 1.468 Q 0.929 1.493 0.927 1.548 A 0.375 0.375 0 0 0 0.927 1.564 A 0.322 0.322 0 0 0 0.928 1.597 Q 0.933 1.64 0.949 1.661 A 0.071 0.071 0 0 0 0.985 1.685 Q 0.997 1.689 1.012 1.69 A 0.156 0.156 0 0 0 1.022 1.69 A 0.097 0.097 0 0 0 1.049 1.686 A 0.07 0.07 0 0 0 1.088 1.657 A 0.112 0.112 0 0 0 1.102 1.628 Q 1.11 1.601 1.11 1.564 A 0.287 0.287 0 0 0 1.109 1.531 Q 1.104 1.495 1.091 1.473 A 0.081 0.081 0 0 0 1.088 1.47 A 0.071 0.071 0 0 0 1.043 1.442 A 0.112 0.112 0 0 0 1.02 1.439 Z M 1.431 1.596 L 1.431 1.567 L 1.382 1.569 Q 1.333 1.571 1.308 1.582 A 0.075 0.075 0 0 0 1.298 1.587 A 0.052 0.052 0 0 0 1.274 1.625 A 0.077 0.077 0 0 0 1.273 1.637 A 0.069 0.069 0 0 0 1.274 1.653 Q 1.278 1.668 1.289 1.677 A 0.053 0.053 0 0 0 1.308 1.687 Q 1.319 1.691 1.333 1.691 A 0.134 0.134 0 0 0 1.362 1.688 Q 1.382 1.683 1.397 1.672 A 0.081 0.081 0 0 0 1.405 1.666 A 0.081 0.081 0 0 0 1.427 1.625 A 0.124 0.124 0 0 0 1.431 1.597 Z" id="back_labelLayer" stroke="#777777" fill="#777777" style="stroke:#777777;fill:#777777" vector-effect="non-scaling-stroke"/><path d="M 3.361 0 L 3.361 0.659 L 3.125 0.659 L 3.125 1.22 L 3.361 1.22 L 3.361 1.78 L 3.125 1.78 L 3.125 2.341 L 3.361 2.341 L 3.361 2.901 L 3.361 3 L 3.784 3 L 3.784 2.764 L 4.345 2.764 L 4.345 3 L 4.905 3 L 4.905 2.764 L 5.466 2.764 L 5.466 3 L 5.889 3 L 5.889 2.341 L 6.125 2.341 L 6.125 1.78 L 5.889 1.78 L 5.889 1.22 L 6.125 1.22 L 6.125 0.659 L 5.889 0.659 L 5.889 0.099 L 5.889 0 L 3.361 0 Z" id="right_outsideCutPath" stroke="#FF0000" stroke-width="0.1" style="stroke:#FF0000;stroke-width:0.1" vector-effect="non-scaling-stroke"/><path d="M 4.998 1.656 L 4.949 1.656 L 4.949 1.448 Q 4.949 1.423 4.942 1.406 A 0.058 0.058 0 0 0 4.932 1.39 Q 4.917 1.374 4.889 1.371 A 0.129 0.129 0 0 0 4.876 1.37 A 0.147 0.147 0 0 0 4.848 1.373 Q 4.818 1.378 4.802 1.398 Q 4.78 1.423 4.779 1.477 A 0.314 0.314 0 0 0 4.778 1.488 L 4.778 1.656 L 4.73 1.656 L 4.73 1.2 L 4.778 1.2 L 4.778 1.338 A 0.437 0.437 0 0 1 4.778 1.355 Q 4.778 1.363 4.777 1.369 A 0.19 0.19 0 0 1 4.776 1.379 L 4.779 1.379 A 0.097 0.097 0 0 1 4.813 1.347 A 0.119 0.119 0 0 1 4.82 1.343 A 0.125 0.125 0 0 1 4.861 1.331 A 0.158 0.158 0 0 1 4.88 1.329 Q 4.919 1.329 4.945 1.342 A 0.088 0.088 0 0 1 4.969 1.357 A 0.085 0.085 0 0 1 4.99 1.39 Q 4.995 1.404 4.997 1.421 A 0.21 0.21 0 0 1 4.998 1.446 L 4.998 1.656 Z M 4.553 1.335 L 4.664 1.335 L 4.664 1.366 L 4.604 1.373 A 0.079 0.079 0 0 1 4.611 1.383 Q 4.614 1.388 4.617 1.394 A 0.15 0.15 0 0 1 4.619 1.399 A 0.094 0.094 0 0 1 4.625 1.422 A 0.12 0.12 0 0 1 4.625 1.437 A 0.111 0.111 0 0 1 4.62 1.471 A 0.09 0.09 0 0 1 4.593 1.512 A 0.108 0.108 0 0 1 4.551 1.534 Q 4.535 1.539 4.516 1.54 A 0.211 0.211 0 0 1 4.505 1.54 A 0.156 0.156 0 0 1 4.487 1.539 A 0.132 0.132 0 0 1 4.478 1.538 A 0.087 0.087 0 0 0 4.464 1.547 Q 4.457 1.553 4.452 1.559 A 0.037 0.037 0 0 0 4.447 1.579 A 0.025 0.025 0 0 0 4.448 1.587 A 0.02 0.02 0 0 0 4.457 1.598 Q 4.466 1.604 4.485 1.605 A 0.185 0.185 0 0 0 4.495 1.605 L 4.552 1.605 Q 4.586 1.605 4.61 1.615 A 0.088 0.088 0 0 1 4.632 1.627 A 0.071 0.071 0 0 1 4.658 1.672 A 0.107 0.107 0 0 1 4.66 1.691 Q 4.66 1.743 4.619 1.771 A 0.113 0.113 0 0 1 4.617 1.772 A 0.146 0.146 0 0 1 4.579 1.789 Q 4.561 1.795 4.538 1.797 A 0.385 0.385 0 0 1 4.492 1.8 A 0.272 0.272 0 0 1 4.456 1.798 Q 4.437 1.795 4.422 1.79 A 0.113 0.113 0 0 1 4.395 1.777 Q 4.363 1.755 4.361 1.716 A 0.103 0.103 0 0 1 4.361 1.71 A 0.074 0.074 0 0 1 4.38 1.66 A 0.085 0.085 0 0 1 4.409 1.638 A 0.12 0.12 0 0 1 4.432 1.631 Q 4.42 1.625 4.412 1.613 A 0.045 0.045 0 0 1 4.403 1.589 A 0.056 0.056 0 0 1 4.403 1.586 Q 4.403 1.569 4.413 1.555 Q 4.42 1.545 4.433 1.536 A 0.153 0.153 0 0 1 4.442 1.53 A 0.085 0.085 0 0 1 4.405 1.5 A 0.106 0.106 0 0 1 4.402 1.495 A 0.101 0.101 0 0 1 4.386 1.447 A 0.123 0.123 0 0 1 4.386 1.439 A 0.141 0.141 0 0 1 4.39 1.406 A 0.092 0.092 0 0 1 4.418 1.357 A 0.103 0.103 0 0 1 4.457 1.336 Q 4.473 1.331 4.492 1.329 A 0.215 0.215 0 0 1 4.507 1.329 A 0.186 0.186 0 0 1 4.532 1.33 A 0.142 0.142 0 0 1 4.553 1.335 Z M 5.246 1.616 L 5.246 1.653 Q 5.238 1.657 5.222 1.659 A 0.211 0.211 0 0 1 5.209 1.661 Q 5.201 1.662 5.195 1.662 Q 5.102 1.662 5.102 1.564 L 5.102 1.373 L 5.056 1.373 L 5.056 1.349 L 5.102 1.329 L 5.122 1.26 L 5.15 1.26 L 5.15 1.335 L 5.243 1.335 L 5.243 1.373 L 5.15 1.373 L 5.15 1.562 A 0.098 0.098 0 0 0 5.152 1.579 Q 5.153 1.588 5.157 1.596 A 0.047 0.047 0 0 0 5.164 1.606 A 0.045 0.045 0 0 0 5.192 1.621 A 0.065 0.065 0 0 0 5.202 1.622 A 0.16 0.16 0 0 0 5.225 1.62 A 0.144 0.144 0 0 0 5.227 1.62 A 0.263 0.263 0 0 0 5.234 1.618 Q 5.237 1.618 5.24 1.617 A 0.101 0.101 0 0 0 5.245 1.616 Z M 4.189 1.332 L 4.182 1.378 A 0.214 0.214 0 0 0 4.167 1.375 Q 4.159 1.374 4.153 1.373 A 0.114 0.114 0 0 0 4.147 1.373 A 0.084 0.084 0 0 0 4.085 1.4 A 0.115 0.115 0 0 0 4.081 1.405 A 0.111 0.111 0 0 0 4.054 1.467 A 0.148 0.148 0 0 0 4.053 1.484 L 4.053 1.656 L 4.004 1.656 L 4.004 1.335 L 4.044 1.335 L 4.05 1.394 L 4.052 1.394 A 0.164 0.164 0 0 1 4.071 1.368 A 0.125 0.125 0 0 1 4.095 1.346 A 0.097 0.097 0 0 1 4.151 1.329 A 0.223 0.223 0 0 1 4.171 1.33 A 0.163 0.163 0 0 1 4.189 1.332 Z M 4.298 1.335 L 4.298 1.656 L 4.249 1.656 L 4.249 1.335 L 4.298 1.335 Z M 4.536 1.649 L 4.478 1.649 A 0.112 0.112 0 0 0 4.458 1.65 Q 4.439 1.654 4.426 1.664 A 0.051 0.051 0 0 0 4.409 1.693 A 0.078 0.078 0 0 0 4.408 1.71 Q 4.408 1.734 4.427 1.747 A 0.057 0.057 0 0 0 4.43 1.749 A 0.078 0.078 0 0 0 4.449 1.758 Q 4.458 1.76 4.469 1.761 A 0.199 0.199 0 0 0 4.492 1.763 A 0.327 0.327 0 0 0 4.525 1.761 Q 4.557 1.758 4.577 1.748 A 0.081 0.081 0 0 0 4.583 1.744 A 0.071 0.071 0 0 0 4.6 1.731 A 0.053 0.053 0 0 0 4.613 1.695 Q 4.613 1.679 4.607 1.669 A 0.031 0.031 0 0 0 4.597 1.659 Q 4.584 1.651 4.556 1.649 A 0.309 0.309 0 0 0 4.536 1.649 Z M 4.434 1.438 A 0.095 0.095 0 0 0 4.436 1.457 Q 4.439 1.47 4.445 1.479 A 0.052 0.052 0 0 0 4.453 1.489 A 0.063 0.063 0 0 0 4.478 1.502 Q 4.488 1.505 4.5 1.506 A 0.125 0.125 0 0 0 4.506 1.506 A 0.106 0.106 0 0 0 4.534 1.503 Q 4.566 1.494 4.574 1.463 A 0.099 0.099 0 0 0 4.577 1.437 Q 4.577 1.379 4.532 1.367 A 0.106 0.106 0 0 0 4.505 1.364 Q 4.471 1.364 4.453 1.383 A 0.058 0.058 0 0 0 4.438 1.407 Q 4.435 1.416 4.435 1.427 A 0.128 0.128 0 0 0 4.434 1.438 Z M 4.245 1.248 Q 4.245 1.231 4.253 1.223 A 0.028 0.028 0 0 1 4.271 1.216 A 0.037 0.037 0 0 1 4.274 1.216 Q 4.286 1.216 4.294 1.223 A 0.025 0.025 0 0 1 4.301 1.234 Q 4.302 1.238 4.302 1.242 A 0.056 0.056 0 0 1 4.303 1.248 A 0.05 0.05 0 0 1 4.302 1.257 Q 4.301 1.262 4.299 1.266 A 0.024 0.024 0 0 1 4.294 1.272 Q 4.286 1.28 4.274 1.28 A 0.031 0.031 0 0 1 4.263 1.279 A 0.027 0.027 0 0 1 4.253 1.272 A 0.025 0.025 0 0 1 4.247 1.262 Q 4.246 1.258 4.245 1.253 A 0.057 0.057 0 0 1 4.245 1.248 Z" id="right_labelLayer" stroke="#777777" fill="#777777" style="stroke:#777777;fill:#777777" vector-effect="non-scaling-stroke"/><path d="M 6.486 3.361 L 6.486 3.784 L 6.25 3.784 L 6.25 4.345 L 6.486 4.345 L 6.486 4.905 L 6.25 4.905 L 6.25 5.466 L 6.486 5.466 L 6.486 5.889 L 6.909 5.889 L 6.909 6.125 L 7.47 6.125 L 7.47 5.889 L 8.03 5.889 L 8.03 6.125 L 8.591 6.125 L 8.591 5.889 L 9.014 5.889 L 9.014 5.466 L 9.25 5.466 L 9.25 4.905 L 9.014 4.905 L 9.014 4.345 L 9.25 4.345 L 9.25 3.784 L 9.014 3.784 L 9.014 3.361 L 8.591 3.361 L 8.591 3.125 L 8.03 3.125 L 8.03 3.361 L 7.47 3.361 L 7.47 3.125 L 6.909 3.125 L 6.909 3.361 L 6.486 3.361 Z" id="bottom_outsideCutPath" stroke="#FF0000" stroke-width="0.1" style="stroke:#FF0000;stroke-width:0.1" vector-effect="non-scaling-stroke"/><path d="M 8.737 4.85 L 8.688 4.85 L 8.688 4.641 A 0.143 0.143 0 0 0 8.687 4.62 Q 8.685 4.609 8.682 4.601 A 0.059 0.059 0 0 0 8.672 4.584 Q 8.656 4.564 8.621 4.564 A 0.125 0.125 0 0 0 8.596 4.567 Q 8.58 4.57 8.569 4.577 A 0.064 0.064 0 0 0 8.554 4.59 Q 8.539 4.609 8.534 4.641 A 0.214 0.214 0 0 0 8.532 4.67 L 8.532 4.85 L 8.484 4.85 L 8.484 4.641 A 0.143 0.143 0 0 0 8.482 4.62 Q 8.481 4.609 8.477 4.601 A 0.059 0.059 0 0 0 8.467 4.584 A 0.051 0.051 0 0 0 8.444 4.568 Q 8.435 4.566 8.425 4.565 A 0.114 0.114 0 0 0 8.416 4.564 Q 8.384 4.564 8.364 4.578 A 0.064 0.064 0 0 0 8.349 4.592 Q 8.328 4.619 8.328 4.682 L 8.328 4.85 L 8.279 4.85 L 8.279 4.529 L 8.319 4.529 L 8.327 4.573 L 8.329 4.573 A 0.096 0.096 0 0 1 8.368 4.536 A 0.115 0.115 0 0 1 8.413 4.523 A 0.14 0.14 0 0 1 8.424 4.523 Q 8.47 4.523 8.497 4.544 A 0.083 0.083 0 0 1 8.522 4.578 L 8.525 4.578 A 0.102 0.102 0 0 1 8.563 4.54 A 0.122 0.122 0 0 1 8.566 4.538 A 0.123 0.123 0 0 1 8.611 4.524 A 0.153 0.153 0 0 1 8.628 4.523 Q 8.683 4.523 8.71 4.551 A 0.084 0.084 0 0 1 8.728 4.58 Q 8.733 4.593 8.735 4.61 A 0.223 0.223 0 0 1 8.737 4.641 L 8.737 4.85 Z M 6.812 4.809 L 6.808 4.809 L 6.798 4.85 L 6.763 4.85 L 6.763 4.394 L 6.812 4.394 L 6.812 4.505 A 1.014 1.014 0 0 1 6.811 4.539 Q 6.811 4.555 6.809 4.57 A 0.612 0.612 0 0 1 6.809 4.572 L 6.812 4.572 Q 6.846 4.524 6.912 4.524 A 0.149 0.149 0 0 1 6.954 4.529 A 0.111 0.111 0 0 1 7.011 4.567 A 0.143 0.143 0 0 1 7.036 4.615 Q 7.042 4.635 7.044 4.659 A 0.312 0.312 0 0 1 7.046 4.689 Q 7.046 4.768 7.01 4.812 A 0.115 0.115 0 0 1 6.929 4.855 A 0.165 0.165 0 0 1 6.912 4.856 A 0.148 0.148 0 0 1 6.875 4.851 A 0.128 0.128 0 0 1 6.855 4.844 A 0.108 0.108 0 0 1 6.812 4.809 Z M 7.641 4.81 L 7.641 4.847 Q 7.633 4.851 7.617 4.853 A 0.211 0.211 0 0 1 7.604 4.855 Q 7.596 4.856 7.59 4.856 Q 7.497 4.856 7.497 4.758 L 7.497 4.567 L 7.451 4.567 L 7.451 4.543 L 7.497 4.523 L 7.517 4.454 L 7.545 4.454 L 7.545 4.529 L 7.638 4.529 L 7.638 4.567 L 7.545 4.567 L 7.545 4.756 A 0.098 0.098 0 0 0 7.547 4.773 Q 7.548 4.782 7.552 4.79 A 0.047 0.047 0 0 0 7.559 4.8 A 0.045 0.045 0 0 0 7.587 4.815 A 0.065 0.065 0 0 0 7.597 4.816 A 0.16 0.16 0 0 0 7.62 4.814 A 0.144 0.144 0 0 0 7.622 4.814 A 0.263 0.263 0 0 0 7.629 4.813 Q 7.632 4.812 7.635 4.811 A 0.101 0.101 0 0 0 7.64 4.81 Z M 7.853 4.81 L 7.853 4.847 Q 7.845 4.851 7.829 4.853 A 0.211 0.211 0 0 1 7.816 4.855 Q 7.808 4.856 7.802 4.856 Q 7.708 4.856 7.708 4.758 L 7.708 4.567 L 7.662 4.567 L 7.662 4.543 L 7.708 4.523 L 7.729 4.454 L 7.757 4.454 L 7.757 4.529 L 7.85 4.529 L 7.85 4.567 L 7.757 4.567 L 7.757 4.756 A 0.098 0.098 0 0 0 7.758 4.773 Q 7.76 4.782 7.764 4.79 A 0.047 0.047 0 0 0 7.771 4.8 A 0.045 0.045 0 0 0 7.799 4.815 A 0.065 0.065 0 0 0 7.809 4.816 A 0.16 0.16 0 0 0 7.832 4.814 A 0.144 0.144 0 0 0 7.833 4.814 A 0.263 0.263 0 0 0 7.841 4.813 Q 7.844 4.812 7.847 4.811 A 0.101 0.101 0 0 0 7.852 4.81 Z M 7.408 4.689 Q 7.408 4.768 7.368 4.812 A 0.13 0.13 0 0 1 7.292 4.853 A 0.189 0.189 0 0 1 7.259 4.856 A 0.156 0.156 0 0 1 7.214 4.849 A 0.135 0.135 0 0 1 7.183 4.836 A 0.132 0.132 0 0 1 7.134 4.785 A 0.16 0.16 0 0 1 7.131 4.778 A 0.18 0.18 0 0 1 7.116 4.729 A 0.243 0.243 0 0 1 7.113 4.689 Q 7.113 4.629 7.136 4.59 A 0.134 0.134 0 0 1 7.152 4.567 Q 7.191 4.523 7.261 4.523 A 0.163 0.163 0 0 1 7.309 4.53 A 0.127 0.127 0 0 1 7.368 4.568 A 0.151 0.151 0 0 1 7.401 4.632 Q 7.407 4.655 7.408 4.681 A 0.285 0.285 0 0 1 7.408 4.689 Z M 8.194 4.689 Q 8.194 4.768 8.154 4.812 A 0.13 0.13 0 0 1 8.078 4.853 A 0.189 0.189 0 0 1 8.045 4.856 A 0.156 0.156 0 0 1 8 4.849 A 0.135 0.135 0 0 1 7.969 4.836 A 0.132 0.132 0 0 1 7.921 4.785 A 0.16 0.16 0 0 1 7.917 4.778 A 0.18 0.18 0 0 1 7.902 4.729 A 0.243 0.243 0 0 1 7.899 4.689 Q 7.899 4.629 7.922 4.59 A 0.134 0.134 0 0 1 7.938 4.567 Q 7.977 4.523 8.047 4.523 A 0.163 0.163 0 0 1 8.095 4.53 A 0.127 0.127 0 0 1 8.154 4.568 A 0.151 0.151 0 0 1 8.187 4.632 Q 8.193 4.655 8.194 4.681 A 0.285 0.285 0 0 1 8.194 4.689 Z M 7.163 4.689 A 0.246 0.246 0 0 0 7.166 4.724 Q 7.171 4.761 7.188 4.783 Q 7.212 4.815 7.26 4.815 A 0.113 0.113 0 0 0 7.29 4.811 A 0.079 0.079 0 0 0 7.333 4.783 Q 7.351 4.759 7.356 4.719 A 0.256 0.256 0 0 0 7.357 4.689 Q 7.357 4.65 7.347 4.623 A 0.1 0.1 0 0 0 7.333 4.596 A 0.08 0.08 0 0 0 7.283 4.566 A 0.123 0.123 0 0 0 7.26 4.564 A 0.116 0.116 0 0 0 7.231 4.568 A 0.077 0.077 0 0 0 7.187 4.596 A 0.101 0.101 0 0 0 7.172 4.626 Q 7.167 4.64 7.165 4.657 A 0.257 0.257 0 0 0 7.163 4.689 Z M 7.949 4.689 A 0.246 0.246 0 0 0 7.952 4.724 Q 7.957 4.761 7.974 4.783 Q 7.998 4.815 8.046 4.815 A 0.113 0.113 0 0 0 8.076 4.811 A 0.079 0.079 0 0 0 8.119 4.783 Q 8.137 4.759 8.142 4.719 A 0.256 0.256 0 0 0 8.143 4.689 Q 8.143 4.65 8.133 4.623 A 0.1 0.1 0 0 0 8.119 4.596 A 0.08 0.08 0 0 0 8.069 4.566 A 0.123 0.123 0 0 0 8.046 4.564 A 0.116 0.116 0 0 0 8.017 4.568 A 0.077 0.077 0 0 0 7.974 4.596 A 0.101 0.101 0 0 0 7.958 4.626 Q 7.953 4.64 7.951 4.657 A 0.257 0.257 0 0 0 7.949 4.689 Z M 6.905 4.564 A 0.137 0.137 0 0 0 6.879 4.567 Q 6.864 4.57 6.852 4.576 A 0.065 0.065 0 0 0 6.834 4.593 Q 6.814 4.618 6.812 4.673 A 0.375 0.375 0 0 0 6.812 4.689 A 0.322 0.322 0 0 0 6.813 4.722 Q 6.818 4.765 6.834 4.786 A 0.071 0.071 0 0 0 6.87 4.81 Q 6.882 4.814 6.897 4.815 A 0.156 0.156 0 0 0 6.907 4.815 A 0.097 0.097 0 0 0 6.934 4.811 A 0.07 0.07 0 0 0 6.973 4.782 A 0.112 0.112 0 0 0 6.987 4.753 Q 6.995 4.726 6.995 4.689 A 0.287 0.287 0 0 0 6.994 4.656 Q 6.989 4.62 6.976 4.598 A 0.081 0.081 0 0 0 6.973 4.595 A 0.071 0.071 0 0 0 6.928 4.567 A 0.112 0.112 0 0 0 6.905 4.564 Z" id="bottom_labelLayer" stroke="#777777" fill="#777777" style="stroke:#777777;fill:#777777" vector-effect="non-scaling-stroke"/></g></svg>