<?xml version="1.0" encoding="UTF-8" standalone="no"?>
<svg
   xmlns:dc="http://purl.org/dc/elements/1.1/"
   xmlns:cc="http://creativecommons.org/ns#"
   xmlns:rdf="http://www.w3.org/1999/02/22-rdf-syntax-ns#"
   xmlns:svg="http://www.w3.org/2000/svg"
   xmlns="http://www.w3.org/2000/svg"
   xmlns:sodipodi="http://sodipodi.sourceforge.net/DTD/sodipodi-0.dtd"
   xmlns:inkscape="http://www.inkscape.org/namespaces/inkscape"
   inkscape:version="1.0 (4035a4fb49, 2020-05-01)"
   sodipodi:docname="box.svg"
   viewBox="0 0 933.33331 626.66669"
   height="626.66669"
   width="933.33331"
   xml:space="preserve"
   id="svg21"
   version="1.1"><metadata
     id="metadata27"><rdf:RDF><cc:Work
         rdf:about=""><dc:format>image/svg+xml</dc:format><dc:type
           rdf:resource="http://purl.org/dc/dcmitype/StillImage" /><dc:title></dc:title></cc:Work></rdf:RDF></metadata><defs
     id="defs25" /><sodipodi:namedview
     inkscape:current-layer="g29"
     inkscape:window-maximized="1"
     inkscape:window-y="0"
     inkscape:window-x="0"
     inkscape:cy="294"
     inkscape:cx="444"
     inkscape:zoom="1.25"
     showgrid="false"
     id="namedview23"
     inkscape:window-height="498"
     inkscape:window-width="873"
     inkscape:pageshadow="2"
     inkscape:pageopacity="0"
     guidetolerance="10"
     gridtolerance="10"
     objecttolerance="10"
     borderopacity="1"
     bordercolor="#666666"
     pagecolor="#ffffff" /><g
     transform="matrix(1.3333333,0,0,-1.3333333,0,626.66667)"
     inkscape:label="box"
     inkscape:groupmode="layer"
     id="g29"><g
       transform="translate(-216,-15435)"
       id="g31"><path
         id="path33"
         style="fill:none;stroke:#ff0000;stroke-width:7.1999;stroke-linecap:round;stroke-linejoin:miter;stroke-miterlimit:4;stroke-dasharray:none;stroke-opacity:1"
         d="m 233,15665.5 v -47.449 h 16.992 v -40.391 H 233 v -40.32 h 16.992 v -40.391 H 233 v -47.449 h 47.449 v 16.992 h 40.3909 V 15449.5 H 361.16 v 16.992 h 40.3909 V 15449.5 H 449 v 47.449 h -16.9921 v 40.391 H 449 v 40.32 h -16.9921 v 40.391 H 449 v 47.449 z" /><path
         id="path35"
         style="fill:#777777;fill-opacity:1;fill-rule:evenodd;stroke:none"
         d="m 372.4649,15541.156 h -3.457 v 14.977 c 0,1.199 -0.192,2.207 -0.5739,3.023 -0.1721,0.446 -0.414,0.86 -0.7231,1.223 -0.7189,0.723 -1.727,1.152 -3.0229,1.297 -0.3331,0.04 -0.672,0.07 -1.0081,0.07 -0.676,0.02 -1.3519,-0.03 -2.0159,-0.141 -1.441,-0.289 -2.543,-0.89 -3.312,-1.8 -1.0081,-1.2 -1.5591,-3.121 -1.657,-5.762 -0.004,-0.238 -0.004,-0.481 0,-0.719 v -12.168 h -3.5271 v 23.114 h 2.8091 l 0.5739,-3.098 h 0.2191 c 0.668,1.07 1.6129,1.941 2.7339,2.519 0.0941,0.03 0.1911,0.05 0.289,0.07 1.0351,0.507 2.1601,0.828 3.312,0.933 0.336,0.02 0.672,0.02 1.0081,0 0.7699,0.02 1.5389,-0.03 2.301,-0.144 0.867,-0.145 1.6329,-0.383 2.3049,-0.719 0.6131,-0.293 1.1721,-0.68 1.6561,-1.152 1.059,-1.008 1.7299,-2.497 2.016,-4.465 0.066,-0.645 0.0889,-1.293 0.0739,-1.942 v -15.121 z m -67.25,23.114 v -2.665 h -5.9019 v -20.449 h -3.4581 v 20.449 h -4.175 v 1.582 l 4.175,1.223 v 1.297 c -0.0269,1.09 0.071,2.176 0.2901,3.242 0.6709,2.926 2.4209,4.629 5.2529,5.11 0.6221,0.105 1.2471,0.152 1.875,0.144 0.528,0.02 1.0591,-0.01 1.582,-0.07 0.528,-0.1 1.0831,-0.219 1.657,-0.36 0.3631,-0.09 0.722,-0.183 1.082,-0.289 l -0.9379,-2.808 c -0.4261,0.136 -0.8591,0.258 -1.2971,0.359 -0.429,0.145 -0.8629,0.242 -1.2959,0.289 -0.2861,0.02 -0.575,0.02 -0.864,0 -0.3831,0.02 -0.7731,0 -1.1521,-0.07 -0.731,-0.172 -1.371,-0.609 -1.8009,-1.227 -0.2191,-0.332 -0.3871,-0.695 -0.504,-1.078 -0.285,-0.816 -0.429,-1.875 -0.429,-3.168 v -1.511 z m 85.1051,-20.161 v -2.738 c -0.382,-0.144 -0.9371,-0.285 -1.656,-0.43 -0.336,-0.06 -0.672,-0.109 -1.008,-0.144 -0.3831,0 -0.718,0 -1.0081,0 -4.4639,0 -6.6949,2.351 -6.6949,7.055 v 13.753 h -3.312 v 1.657 l 3.312,1.437 1.438,4.969 h 2.015 v -5.398 h 6.6989 v -2.665 h -6.6989 v -13.609 c 0.0159,-0.41 0.0629,-0.82 0.1449,-1.223 0.0511,-0.48 0.168,-0.89 0.3591,-1.226 0.1329,-0.285 0.3009,-0.551 0.504,-0.789 0.52,-0.594 1.2379,-0.981 2.02,-1.082 0.2379,-0.02 0.48,-0.02 0.7179,0 0.5511,-0.02 1.106,0 1.6571,0.07 0.0459,0.03 0.0929,0.05 0.144,0.07 0.168,0.02 0.336,0.05 0.504,0.07 0.145,0 0.285,0.02 0.4299,0.07 0.121,0.02 0.242,0.04 0.3591,0.07 l 0.074,0.07 z m -67.6091,20.375 -0.4299,-3.242 c -0.3831,0.09 -0.765,0.16 -1.1521,0.219 -0.336,0.05 -0.6719,0.07 -1.0079,0.07 -0.121,0 -0.2421,0 -0.3591,0 -1.7229,0.03 -3.3709,-0.679 -4.5389,-1.941 -0.098,-0.121 -0.1961,-0.238 -0.285,-0.363 -1.0981,-1.25 -1.778,-2.809 -1.946,-4.461 -0.047,-0.383 -0.0701,-0.77 -0.0701,-1.153 v -12.457 h -3.457 v 23.114 h 2.879 l 0.3591,-4.25 h 0.2189 c 0.3671,0.664 0.8051,1.292 1.293,1.871 0.5271,0.605 1.1331,1.14 1.8011,1.586 1.168,0.796 2.547,1.226 3.961,1.222 0.48,0 0.961,-0.03 1.437,-0.07 0.438,-0.02 0.867,-0.07 1.2969,-0.145 z m 24.336,-11.738 c 0,-3.742 -0.957,-6.672 -2.879,-8.781 -1.4219,-1.606 -3.3549,-2.672 -5.4729,-3.024 -0.785,-0.117 -1.582,-0.168 -2.375,-0.144 -1.121,-0.02 -2.2341,0.121 -3.3121,0.43 -0.7849,0.242 -1.5349,0.582 -2.231,1.007 -1.4639,0.891 -2.6559,2.161 -3.4569,3.672 -0.078,0.168 -0.1481,0.336 -0.2151,0.504 -0.5269,1.121 -0.89,2.309 -1.082,3.531 -0.1479,0.926 -0.218,1.868 -0.2139,2.805 0,2.883 0.5269,5.281 1.582,7.203 0.347,0.594 0.7569,1.149 1.226,1.656 1.871,2.063 4.4879,3.094 7.8479,3.094 1.168,0.03 2.332,-0.117 3.457,-0.429 1.644,-0.497 3.1131,-1.446 4.246,-2.739 1.1641,-1.34 1.9771,-2.949 2.375,-4.679 0.2891,-1.055 0.4571,-2.231 0.504,-3.528 0.004,-0.191 0.004,-0.383 0,-0.578 z m -17.6409,0 c -0.011,-0.84 0.039,-1.684 0.1449,-2.519 0.289,-1.727 0.8401,-3.141 1.6561,-4.247 1.1519,-1.535 2.8829,-2.304 5.184,-2.304 0.73,0 1.457,0.1 2.1599,0.289 1.203,0.324 2.265,1.031 3.0231,2.015 0.914,1.153 1.489,2.688 1.7309,4.61 0.0661,0.715 0.0901,1.437 0.0701,2.156 0,1.922 -0.2381,3.531 -0.719,4.824 -0.265,0.676 -0.6291,1.309 -1.082,1.875 -0.867,1.129 -2.125,1.899 -3.5271,2.16 -0.5699,0.102 -1.149,0.153 -1.7269,0.141 -0.679,0.01 -1.3551,-0.06 -2.0151,-0.215 -1.258,-0.281 -2.379,-0.996 -3.168,-2.015 -0.485,-0.676 -0.8519,-1.43 -1.082,-2.231 -0.239,-0.625 -0.407,-1.344 -0.504,-2.16 -0.0979,-0.789 -0.1449,-1.582 -0.1449,-2.379 z" /><path
         id="path37"
         style="fill:none;stroke:#ff0000;stroke-width:7.1999;stroke-linecap:round;stroke-linejoin:miter;stroke-miterlimit:4;stroke-dasharray:none;stroke-opacity:1"
         d="m 474.992,15665.5 v -47.449 H 458 v -40.391 h 16.992 v -40.32 H 458 v -40.391 h 16.992 v -47.449 h 30.457 v 16.992 h 40.3909 V 15449.5 H 586.16 v 16.992 h 40.3909 v -16.992 h 30.457 v 47.449 H 674 v 40.391 h -16.9921 v 40.32 H 674 v 40.391 h -16.9921 v 47.449 z" /><path
         id="path39"
         style="fill:#777777;fill-opacity:1;fill-rule:evenodd;stroke:none"
         d="m 581.3359,15564.27 v -2.665 h -5.832 v -20.449 h -3.5269 v 20.449 h -4.106 v 1.582 l 4.106,1.223 v 1.297 c -0.004,1.09 0.1169,2.18 0.3589,3.242 0.672,2.926 2.398,4.629 5.1841,5.11 0.6169,0.105 1.246,0.152 1.871,0.144 0.554,0.02 1.109,0 1.6559,-0.07 0.48,-0.1 1.008,-0.219 1.586,-0.36 0.3631,-0.09 0.722,-0.183 1.078,-0.289 l -0.8629,-2.808 c -0.4501,0.14 -0.9071,0.258 -1.3681,0.359 -0.433,0.145 -0.8389,0.242 -1.222,0.289 -0.289,0.02 -0.578,0.02 -0.8669,0 -0.3831,0.02 -0.77,0 -1.153,-0.07 -0.7301,-0.172 -1.371,-0.609 -1.7971,-1.227 -0.2459,-0.328 -0.4409,-0.691 -0.5779,-1.078 -0.238,-0.816 -0.3591,-1.875 -0.3591,-3.168 v -1.511 z m -16.3439,-9.938 v -2.23 h -15.914 c 0.008,-0.797 0.078,-1.594 0.2189,-2.379 0.336,-1.582 0.933,-2.856 1.8011,-3.817 0.902,-0.961 2.086,-1.613 3.3819,-1.871 0.688,-0.148 1.3871,-0.219 2.086,-0.215 2.395,0 4.77,0.465 6.985,1.367 0.1441,0.07 0.289,0.145 0.433,0.215 v -3.168 c -0.6359,-0.269 -1.2849,-0.511 -1.9449,-0.718 -0.519,-0.172 -1.047,-0.317 -1.582,-0.43 -0.8631,-0.145 -1.8481,-0.242 -2.9531,-0.289 -0.336,0 -0.6719,0 -1.0079,0 -1.164,-0.03 -2.3241,0.09 -3.457,0.359 -1.789,0.446 -3.414,1.395 -4.6801,2.735 -1.187,1.281 -2.0269,2.843 -2.4489,4.539 -0.336,1.246 -0.504,2.613 -0.504,4.101 0,3.746 0.914,6.723 2.739,8.93 1.625,1.957 4.0069,3.133 6.55,3.238 0.2889,0.01 0.5779,0.01 0.864,0 1.019,0.03 2.039,-0.09 3.0269,-0.359 1.504,-0.426 2.8521,-1.274 3.8871,-2.449 1.09,-1.278 1.836,-2.813 2.1599,-4.461 0.2301,-1.016 0.351,-2.055 0.3591,-3.098 z m 31.246,-10.223 v -2.738 c -0.3831,-0.144 -0.957,-0.285 -1.7261,-0.43 -0.3089,-0.06 -0.6209,-0.105 -0.9379,-0.144 -0.3831,0 -0.7191,0 -1.0081,0 -4.461,0 -6.6949,2.351 -6.6949,7.055 v 13.753 h -3.312 v 1.657 l 3.312,1.437 1.442,4.969 h 2.015 v -5.398 h 6.6949 v -2.665 h -6.6949 v -13.609 c 0.0119,-0.41 0.0589,-0.82 0.145,-1.223 0.047,-0.48 0.168,-0.89 0.359,-1.226 0.1289,-0.285 0.3009,-0.551 0.5039,-0.789 0.519,-0.594 1.2341,-0.981 2.0161,-1.082 0.2379,-0.02 0.48,-0.02 0.718,0 0.555,-0.02 1.1099,0 1.657,0.07 0.0499,0.03 0.097,0.05 0.144,0.07 0.168,0.02 0.336,0.05 0.504,0.07 0.145,0 0.289,0.02 0.434,0.07 0.1209,0.02 0.2379,0.04 0.3589,0.07 l 0.0701,0.07 z m -56.949,29.879 v -32.832 h -3.5271 v 32.832 z m 9.8629,-19.008 h 12.0941 c 0.004,0.625 -0.047,1.254 -0.1411,1.872 -0.2419,1.296 -0.6989,2.351 -1.371,3.168 -0.73,0.875 -1.754,1.46 -2.879,1.656 -0.425,0.09 -0.8589,0.136 -1.2959,0.144 -0.6801,0 -1.36,-0.09 -2.0161,-0.289 -0.9449,-0.289 -1.7929,-0.84 -2.4449,-1.582 -0.606,-0.672 -1.067,-1.457 -1.371,-2.304 -0.2861,-0.77 -0.481,-1.657 -0.5751,-2.665 z" /><path
         id="path41"
         style="fill:none;stroke:#ff0000;stroke-width:7.1999;stroke-linecap:round;stroke-linejoin:miter;stroke-miterlimit:4;stroke-dasharray:none;stroke-opacity:1"
         d="m 233,15890.5 v -47.449 h 16.992 v -40.391 H 233 v -40.32 h 16.992 v -40.391 H 233 v -47.449 h 47.449 v 16.992 h 40.3909 V 15674.5 H 361.16 v 16.992 h 40.3909 V 15674.5 H 449 v 47.449 h -16.9921 v 40.391 H 449 v 40.32 h -16.9921 v 40.391 H 449 v 47.449 z" /><path
         id="path43"
         style="fill:#777777;fill-opacity:1;fill-rule:evenodd;stroke:none"
         d="m 370.5939,15778.109 h 0.14 c 0.164,0.243 0.332,0.481 0.5041,0.719 0.387,0.527 0.8669,1.106 1.4419,1.727 0.261,0.316 0.5271,0.629 0.7931,0.937 l 7.4879,7.918 h 4.176 l -9.36,-9.863 10.0081,-13.246 h -4.25 l -8.1371,10.941 -2.664,-2.301 v -8.64 h -3.4529 v 32.832 h 3.4529 v -17.426 c 0.004,-0.215 0.004,-0.43 0,-0.648 0,-0.719 -0.0459,-1.704 -0.14,-2.95 z m -70.8519,-8.855 h -0.285 l -0.7231,-2.953 h -2.519 v 32.832 h 3.5271 v -7.992 c -0.008,-0.817 -0.0311,-1.633 -0.0701,-2.45 0,-0.765 -0.0469,-1.511 -0.145,-2.23 0,-0.05 0,-0.1 0,-0.145 h 0.2151 c 1.633,2.305 4.0349,3.457 7.203,3.457 1.0199,0.02 2.0349,-0.1 3.0239,-0.363 1.621,-0.453 3.058,-1.414 4.1011,-2.734 0.8169,-1.028 1.426,-2.199 1.801,-3.457 0.289,-0.957 0.481,-2.016 0.578,-3.168 0.082,-0.715 0.129,-1.438 0.1449,-2.16 0,-3.789 -0.8669,-6.743 -2.5939,-8.856 -1.43,-1.797 -3.543,-2.918 -5.8321,-3.094 -0.406,-0.05 -0.8159,-0.07 -1.2229,-0.07 -0.9021,0 -1.7971,0.129 -2.664,0.36 -0.496,0.128 -0.9761,0.296 -1.4411,0.503 -1.235,0.559 -2.3009,1.426 -3.0979,2.524 z m 39.746,-2.953 h -2.593 l -0.7191,3.312 h -0.1449 c -0.3551,-0.48 -0.7381,-0.937 -1.1521,-1.371 -0.7659,-0.719 -1.535,-1.246 -2.3049,-1.582 -0.5311,-0.226 -1.086,-0.394 -1.6521,-0.504 -0.5309,-0.144 -1.106,-0.242 -1.731,-0.289 -0.289,0 -0.5739,0 -0.8629,0 -2.3051,0 -4.105,0.602 -5.3981,1.801 -0.875,0.805 -1.4809,1.863 -1.7309,3.023 -0.1481,0.661 -0.222,1.34 -0.2151,2.016 -0.0889,2.418 1.27,4.656 3.457,5.688 1.6801,0.914 4.0081,1.441 6.985,1.585 0.2381,0.03 0.476,0.05 0.7191,0.07 l 3.9599,0.07 v 1.437 c 0,1.153 -0.144,2.09 -0.433,2.809 -0.1839,0.457 -0.453,0.871 -0.793,1.227 -0.395,0.425 -0.8909,0.746 -1.438,0.933 -0.386,0.145 -0.8159,0.242 -1.2959,0.289 -0.336,0.04 -0.672,0.07 -1.0081,0.07 -0.8709,0 -1.7419,-0.09 -2.594,-0.286 -0.8159,-0.195 -1.656,-0.48 -2.52,-0.867 -0.4599,-0.176 -0.918,-0.367 -1.3669,-0.574 l -1.082,2.664 c 0.985,0.539 2.024,0.973 3.0979,1.297 0.215,0.05 0.4301,0.1 0.6481,0.145 1.344,0.335 2.6879,0.503 4.032,0.503 0.769,0.01 1.543,-0.04 2.304,-0.144 0.7699,-0.1 1.465,-0.289 2.086,-0.578 0.6599,-0.25 1.2699,-0.617 1.8009,-1.078 0.629,-0.625 1.0981,-1.391 1.3671,-2.235 0.3869,-1.008 0.578,-2.23 0.578,-3.672 v -15.765 z m 22.6799,22.32 -1.078,-2.953 c -0.567,0.227 -1.1449,0.418 -1.731,0.574 -0.2849,0.08 -0.5739,0.153 -0.8629,0.219 -0.769,0.144 -1.465,0.238 -2.09,0.285 -0.093,0 -0.1911,0 -0.285,0 -1.086,0.03 -2.164,-0.164 -3.168,-0.574 -2.211,-1.008 -3.48,-3.192 -3.8161,-6.551 -0.0549,-0.625 -0.0779,-1.25 -0.0739,-1.875 0,-1.871 0.2419,-3.453 0.722,-4.75 0.246,-0.644 0.586,-1.25 1.0079,-1.801 0.8711,-1.164 2.1641,-1.937 3.5981,-2.16 0.504,-0.07 1.0069,-0.09 1.5109,-0.07 1.3681,0 2.7231,0.195 4.0361,0.574 0.632,0.184 1.257,0.398 1.871,0.648 v -3.093 c -0.774,-0.395 -1.5981,-0.688 -2.4501,-0.867 -0.765,-0.192 -1.582,-0.313 -2.4489,-0.36 -0.308,0 -0.621,0 -0.933,0 -1.0901,-0.01 -2.1801,0.106 -3.2431,0.36 -1.754,0.429 -3.336,1.382 -4.5349,2.738 -1.582,1.773 -2.496,4.199 -2.7341,7.269 -0.0159,0.481 -0.0159,0.961 0,1.442 0,2.832 0.4801,5.183 1.437,7.054 0.352,0.7 0.789,1.352 1.2971,1.946 1.301,1.472 3.043,2.484 4.9689,2.879 0.9961,0.207 2.008,0.304 3.023,0.289 1.114,0 2.2231,-0.125 3.313,-0.36 0.34,-0.06 0.676,-0.132 1.008,-0.214 0.625,-0.196 1.1521,-0.411 1.5861,-0.649 z m -55.727,-1.73 c -0.6319,-0.01 -1.2569,-0.08 -1.875,-0.215 -0.7179,-0.145 -1.3669,-0.36 -1.9409,-0.649 -0.508,-0.32 -0.9491,-0.734 -1.297,-1.222 -0.961,-1.2 -1.4881,-3.121 -1.586,-5.762 -0.008,-0.383 -0.008,-0.766 0,-1.152 -0.015,-0.793 0.008,-1.586 0.0739,-2.375 0.239,-2.063 0.7431,-3.602 1.5121,-4.61 0.664,-0.828 1.5699,-1.433 2.5939,-1.726 0.5741,-0.192 1.2231,-0.313 1.9411,-0.36 0.2419,0 0.4809,0 0.7229,0 0.6561,0 1.312,0.102 1.941,0.289 1.1571,0.336 2.153,1.078 2.809,2.086 0.4341,0.645 0.773,1.348 1.008,2.09 0.3831,1.293 0.578,2.832 0.578,4.606 0.019,0.793 -0.004,1.586 -0.0739,2.379 -0.2391,1.726 -0.6721,3.117 -1.2971,4.175 -0.071,0.08 -0.1409,0.145 -0.215,0.215 -0.7769,1.067 -1.9409,1.789 -3.2379,2.016 -0.5431,0.129 -1.102,0.203 -1.6571,0.215 z m 29.5901,-11.301 v 2.086 l -3.5271,-0.145 c -2.352,-0.09 -4.1289,-0.406 -5.328,-0.933 -0.25,-0.106 -0.4879,-0.223 -0.7189,-0.364 -0.961,-0.601 -1.5981,-1.609 -1.73,-2.734 -0.0471,-0.285 -0.071,-0.574 -0.071,-0.863 -0.0191,-0.387 0.004,-0.774 0.071,-1.153 0.1949,-0.718 0.554,-1.297 1.082,-1.726 0.4019,-0.332 0.8669,-0.578 1.3669,-0.723 0.5271,-0.191 1.129,-0.289 1.8011,-0.289 0.7029,0 1.4019,0.07 2.086,0.219 0.9599,0.238 1.8,0.625 2.5229,1.152 0.1991,0.129 0.3911,0.274 0.5741,0.43 0.8049,0.808 1.356,1.836 1.582,2.953 0.1759,0.66 0.2699,1.336 0.289,2.016 v 0.07 z" /><path
         id="path45"
         style="fill:none;stroke:#ff0000;stroke-width:7.1999;stroke-linecap:round;stroke-linejoin:miter;stroke-miterlimit:4;stroke-dasharray:none;stroke-opacity:1"
         d="m 474.992,15890.5 v -47.449 H 458 v -40.391 h 16.992 v -40.32 H 458 v -40.391 h 16.992 v -47.449 h 30.457 v 16.992 h 40.3909 V 15674.5 H 586.16 v 16.992 h 40.3909 v -16.992 h 30.457 v 47.449 H 674 v 40.391 h -16.9921 v 40.32 H 674 v 40.391 h -16.9921 v 47.449 z" /><path
         id="path47"
         style="fill:#777777;fill-opacity:1;fill-rule:evenodd;stroke:none"
         d="m 592.8549,15771.27 h -3.5269 v 14.972 c 0,1.203 -0.168,2.211 -0.504,3.028 -0.1761,0.417 -0.418,0.808 -0.7191,1.152 -0.722,0.765 -1.7529,1.223 -3.097,1.367 -0.3089,0.04 -0.621,0.06 -0.9379,0.07 -0.675,0 -1.3511,-0.08 -2.0151,-0.214 -1.4379,-0.243 -2.543,-0.84 -3.3129,-1.801 -1.054,-1.199 -1.6051,-3.098 -1.6521,-5.688 -0.0309,-0.265 -0.0549,-0.527 -0.0739,-0.793 v -12.093 h -3.457 v 32.832 h 3.457 v -9.938 c 0.007,-0.406 0.007,-0.816 0,-1.223 0,-0.386 -0.024,-0.722 -0.071,-1.007 -0.0191,-0.243 -0.0431,-0.481 -0.074,-0.723 h 0.2189 c 0.6131,0.957 1.453,1.746 2.4451,2.305 0.164,0.101 0.332,0.199 0.504,0.289 0.9299,0.453 1.9259,0.746 2.953,0.863 0.453,0.07 0.9099,0.125 1.3669,0.144 1.871,0 3.434,-0.312 4.6801,-0.937 0.6329,-0.262 1.2149,-0.629 1.731,-1.078 0.679,-0.664 1.1989,-1.477 1.511,-2.375 0.239,-0.676 0.407,-1.418 0.504,-2.235 0.0589,-0.597 0.082,-1.199 0.0699,-1.8 z m -32.039,23.109 h 7.9931 v -2.231 l -4.321,-0.503 c 0.1879,-0.227 0.3559,-0.469 0.504,-0.719 0.1449,-0.242 0.289,-0.504 0.4339,-0.793 0.0471,-0.121 0.097,-0.238 0.14,-0.36 0.2151,-0.531 0.36,-1.089 0.4341,-1.656 0.0229,-0.359 0.0229,-0.722 0,-1.082 0.008,-0.828 -0.1131,-1.656 -0.359,-2.445 -0.3641,-1.149 -1.0361,-2.168 -1.946,-2.953 -0.8791,-0.746 -1.91,-1.289 -3.0231,-1.586 -0.77,-0.239 -1.6089,-0.383 -2.52,-0.43 -0.265,0 -0.5269,0 -0.793,0 -0.433,0 -0.8629,0.02 -1.2959,0.07 -0.215,0.02 -0.4301,0.04 -0.649,0.07 -0.355,-0.184 -0.691,-0.403 -1.008,-0.649 -0.336,-0.289 -0.621,-0.578 -0.8631,-0.863 -0.2539,-0.438 -0.3789,-0.938 -0.3589,-1.442 -0.008,-0.195 0.015,-0.39 0.0739,-0.578 0.1091,-0.332 0.3401,-0.613 0.644,-0.789 0.434,-0.289 1.106,-0.457 2.02,-0.504 0.2381,0 0.476,0 0.7191,0 h 4.101 c 1.633,0 3.028,-0.242 4.1799,-0.722 0.5661,-0.211 1.0981,-0.5 1.582,-0.864 1.0121,-0.804 1.6801,-1.96 1.8711,-3.238 0.0899,-0.453 0.1369,-0.91 0.145,-1.371 0,-2.492 -0.985,-4.414 -2.9541,-5.758 -0.0459,-0.02 -0.0929,-0.05 -0.14,-0.07 -0.8519,-0.535 -1.774,-0.945 -2.7379,-1.223 -0.864,-0.289 -1.8481,-0.48 -2.9541,-0.574 -1.097,-0.14 -2.2029,-0.211 -3.308,-0.219 -0.8669,0 -1.735,0.04 -2.5939,0.145 -0.9101,0.144 -1.7271,0.336 -2.4491,0.578 -0.6839,0.223 -1.34,0.539 -1.942,0.934 -1.539,1.058 -2.351,2.519 -2.4489,4.394 -0.004,0.145 -0.004,0.285 0,0.43 -0.008,1.328 0.481,2.613 1.3669,3.601 0.5751,0.672 1.2861,1.211 2.0901,1.582 0.5309,0.223 1.086,0.395 1.6559,0.504 -0.578,0.289 -1.058,0.723 -1.4409,1.297 -0.379,0.5 -0.605,1.102 -0.648,1.731 0,0.07 0,0.14 0,0.215 0,0.816 0.2419,1.558 0.7179,2.23 0.3361,0.481 0.817,0.938 1.442,1.367 0.211,0.153 0.4261,0.297 0.6481,0.434 -1.074,0.453 -2,1.199 -2.664,2.16 -0.0741,0.117 -0.1481,0.238 -0.215,0.359 -0.6721,1.036 -1.07,2.227 -1.1521,3.457 -0.008,0.192 -0.008,0.383 0,0.575 0,0.8 0.0981,1.597 0.2851,2.379 0.289,1.355 0.992,2.589 2.02,3.527 0.812,0.699 1.773,1.215 2.8039,1.512 0.77,0.238 1.61,0.406 2.524,0.503 0.3591,0.01 0.7191,0.01 1.078,0 0.601,0.02 1.2031,0 1.801,-0.07 0.511,-0.08 1.0151,-0.199 1.511,-0.359 z m 49.895,-20.231 v -2.664 c -0.3829,-0.191 -0.957,-0.336 -1.727,-0.433 -0.312,-0.06 -0.6209,-0.106 -0.937,-0.145 -0.3829,-0.05 -0.7189,-0.07 -1.0079,-0.07 -4.465,0 -6.6951,2.351 -6.6951,7.055 v 13.754 h -3.3129 v 1.726 l 3.3129,1.441 1.4411,4.969 h 2.0159 v -5.402 h 6.6951 v -2.734 h -6.6951 v -13.61 c 0.0121,-0.41 0.058,-0.82 0.1441,-1.223 0.047,-0.433 0.168,-0.839 0.3599,-1.222 0.136,-0.262 0.304,-0.504 0.5041,-0.723 0.519,-0.594 1.2339,-0.976 2.015,-1.078 0.239,-0.04 0.4769,-0.07 0.7189,-0.07 0.5551,0 1.109,0.06 1.6561,0.144 0.047,0 0.0979,0 0.1449,0 0.168,0.05 0.336,0.09 0.5041,0.145 0.144,0 0.2889,0.02 0.433,0.07 0.1209,0.02 0.239,0.05 0.36,0.07 z m -76.102,20.45 -0.504,-3.313 c -0.3589,0.08 -0.718,0.156 -1.082,0.215 -0.3819,0.05 -0.718,0.1 -1.0069,0.145 -0.145,0 -0.289,0 -0.4301,0 -1.6949,0 -3.3159,-0.7 -4.4649,-1.946 -0.101,-0.117 -0.1951,-0.238 -0.289,-0.359 -1.0981,-1.25 -1.7771,-2.809 -1.9451,-4.465 -0.047,-0.406 -0.071,-0.813 -0.071,-1.223 v -12.382 h -3.5269 v 23.109 h 2.8789 l 0.4341,-4.246 h 0.14 c 0.3949,0.668 0.8519,1.293 1.371,1.871 0.504,0.601 1.086,1.133 1.7269,1.586 1.187,0.812 2.5941,1.238 4.0311,1.222 0.481,0 0.961,-0.03 1.442,-0.07 0.433,-0.02 0.8669,-0.07 1.2959,-0.14 z m 7.8481,-0.219 v -23.109 h -3.5271 v 23.109 z m 17.1369,-22.606 h -4.1799 c -0.48,0.02 -0.961,0 -1.437,-0.07 -0.914,-0.191 -1.6801,-0.527 -2.3051,-1.008 -0.6329,-0.535 -1.063,-1.273 -1.2229,-2.086 -0.0701,-0.406 -0.0941,-0.816 -0.074,-1.226 0,-1.152 0.457,-2.039 1.367,-2.664 0.0739,-0.05 0.1449,-0.1 0.2189,-0.145 0.422,-0.273 0.883,-0.492 1.3671,-0.644 0.4339,-0.1 0.91,-0.168 1.442,-0.219 0.5459,-0.08 1.101,-0.129 1.6559,-0.145 0.793,0 1.586,0.06 2.375,0.145 1.535,0.145 2.785,0.457 3.742,0.938 0.148,0.09 0.293,0.183 0.4341,0.289 0.4529,0.246 0.8629,0.562 1.222,0.933 0.625,0.719 0.957,1.641 0.9379,2.594 0,0.766 -0.1449,1.391 -0.4339,1.871 -0.1801,0.293 -0.4261,0.539 -0.7191,0.719 -0.625,0.386 -1.6089,0.625 -2.9529,0.722 -0.4801,0.02 -0.961,0.02 -1.4371,0 z m -7.3479,15.192 c 0.004,-0.461 0.0509,-0.918 0.145,-1.367 0.144,-0.625 0.3629,-1.153 0.648,-1.586 0.164,-0.262 0.356,-0.504 0.578,-0.719 0.5199,-0.445 1.1369,-0.766 1.797,-0.938 0.481,-0.144 1.0119,-0.238 1.586,-0.289 0.145,0 0.289,0 0.434,0 0.6749,-0.02 1.355,0.05 2.015,0.219 1.5349,0.43 2.496,1.391 2.879,2.879 0.1559,0.613 0.2269,1.242 0.2149,1.871 0,2.785 -1.078,4.465 -3.238,5.039 -0.637,0.156 -1.2889,0.231 -1.946,0.219 -1.6319,0 -2.879,-0.457 -3.7419,-1.367 -0.5,-0.481 -0.871,-1.074 -1.082,-1.731 -0.144,-0.429 -0.215,-0.91 -0.215,-1.437 -0.035,-0.266 -0.0581,-0.528 -0.074,-0.793 z m -13.605,13.68 c 0,0.816 0.191,1.414 0.5739,1.8 0.3591,0.317 0.8201,0.492 1.297,0.504 0.0701,0 0.1441,0 0.2151,0 0.5779,0 1.058,-0.168 1.4409,-0.504 0.234,-0.215 0.4101,-0.488 0.504,-0.793 0.047,-0.191 0.0701,-0.382 0.0701,-0.578 0.0349,-0.14 0.0589,-0.285 0.0739,-0.429 -0.003,-0.219 -0.0269,-0.434 -0.0739,-0.649 -0.047,-0.238 -0.117,-0.457 -0.2151,-0.648 -0.0929,-0.164 -0.2139,-0.309 -0.359,-0.434 -0.3829,-0.383 -0.863,-0.574 -1.4409,-0.574 -0.2661,-0.02 -0.532,0 -0.789,0.07 -0.278,0.113 -0.524,0.285 -0.7231,0.504 -0.1989,0.203 -0.3439,0.453 -0.4299,0.723 -0.0511,0.191 -0.097,0.406 -0.144,0.648 -0.008,0.117 -0.008,0.238 0,0.36 z" /><path
         id="path49"
         style="fill:none;stroke:#ff0000;stroke-width:7.1999;stroke-linecap:round;stroke-linejoin:miter;stroke-miterlimit:4;stroke-dasharray:none;stroke-opacity:1"
         d="m 699.992,15648.508 v -30.457 H 683 v -40.391 h 16.992 v -40.32 H 683 v -40.391 h 16.992 v -30.457 h 30.457 v -16.992 h 40.3909 v 16.992 H 811.16 v -16.992 h 40.3909 v 16.992 h 30.457 v 30.457 H 899 v 40.391 h -16.9921 v 40.32 H 899 v 40.391 h -16.9921 v 30.457 h -30.457 v 16.992 H 811.16 v -16.992 h -40.3201 v 16.992 H 730.449 v -16.992 z" /><path
         id="path51"
         style="fill:#777777;fill-opacity:1;fill-rule:evenodd;stroke:none"
         d="m 862.063,15541.301 h -3.528 v 15.047 c 0.0159,0.504 -0.0121,1.011 -0.0701,1.511 -0.0979,0.528 -0.2189,0.985 -0.36,1.368 -0.1709,0.445 -0.414,0.859 -0.722,1.226 -0.7659,0.957 -1.9919,1.438 -3.672,1.438 -0.606,-0.01 -1.207,-0.08 -1.8009,-0.215 -0.765,-0.145 -1.414,-0.383 -1.9411,-0.719 -0.4059,-0.254 -0.7739,-0.57 -1.082,-0.937 -0.719,-0.911 -1.1989,-2.137 -1.4379,-3.672 -0.097,-0.692 -0.1441,-1.391 -0.1441,-2.086 v -12.961 h -3.4569 v 15.047 c -0.0121,0.507 -0.059,1.011 -0.145,1.511 -0.047,0.528 -0.168,0.985 -0.3591,1.368 -0.168,0.445 -0.414,0.859 -0.7189,1.226 -0.4341,0.531 -1.008,0.93 -1.6561,1.152 -0.4339,0.09 -0.8909,0.168 -1.3669,0.215 -0.2151,0.03 -0.4341,0.06 -0.649,0.07 -1.539,0 -2.7851,-0.336 -3.746,-1.008 -0.4101,-0.274 -0.7771,-0.613 -1.0781,-1.008 -1.0079,-1.297 -1.5119,-3.453 -1.5119,-6.48 v -12.094 h -3.5271 v 23.109 h 2.879 l 0.574,-3.168 h 0.1451 c 0.664,1.141 1.636,2.063 2.808,2.664 1.004,0.531 2.106,0.852 3.2379,0.938 0.2661,0.01 0.5321,0.01 0.793,0 2.207,0 3.9611,-0.504 5.2581,-1.512 0.8009,-0.648 1.418,-1.492 1.8009,-2.449 h 0.215 c 0.6481,1.14 1.5941,2.086 2.7341,2.738 0.0699,0.05 0.1449,0.1 0.2189,0.145 1.004,0.539 2.101,0.882 3.2381,1.007 0.4059,0.05 0.817,0.07 1.2229,0.07 2.64,0 4.6091,-0.672 5.9061,-2.016 0.5699,-0.601 1.0119,-1.312 1.293,-2.09 0.242,-0.621 0.41,-1.343 0.5079,-2.16 0.0981,-0.738 0.144,-1.484 0.1411,-2.23 v -15.047 z m -138.5981,2.953 h -0.289 l -0.7189,-2.953 h -2.519 v 32.832 h 3.5269 v -7.992 c -0.0119,-0.817 -0.035,-1.633 -0.0739,-2.45 0,-0.765 -0.0471,-1.511 -0.145,-2.23 0.004,-0.05 0.004,-0.1 0,-0.145 h 0.2189 c 1.6331,2.305 4.0311,3.457 7.1991,3.457 1.02,0.02 2.039,-0.1 3.024,-0.363 1.621,-0.453 3.058,-1.414 4.1049,-2.734 0.812,-1.028 1.426,-2.199 1.801,-3.457 0.285,-0.957 0.4761,-2.016 0.574,-3.168 0.0821,-0.715 0.129,-1.438 0.1451,-2.16 0,-3.789 -0.864,-6.743 -2.5941,-8.856 -1.4299,-1.797 -3.543,-2.918 -5.832,-3.094 -0.407,-0.05 -0.8129,-0.07 -1.2229,-0.07 -0.898,0 -1.793,0.129 -2.664,0.36 -0.4921,0.128 -0.9771,0.296 -1.441,0.503 -1.231,0.559 -2.3011,1.426 -3.0941,2.524 z m 59.687,-0.07 v -2.664 c -0.3819,-0.192 -0.961,-0.336 -1.726,-0.43 -0.3129,-0.06 -0.625,-0.109 -0.9379,-0.145 -0.3831,-0.05 -0.718,-0.07 -1.0081,-0.07 -4.4639,0 -6.6949,2.352 -6.6949,7.059 v 13.75 h -3.312 v 1.726 l 3.312,1.442 1.438,4.968 h 2.015 v -5.402 h 6.7 v -2.734 h -6.7 v -13.61 c 0.0159,-0.41 0.0629,-0.82 0.1449,-1.222 0.0511,-0.434 0.168,-0.84 0.3591,-1.223 0.1369,-0.262 0.3089,-0.504 0.504,-0.723 0.52,-0.589 1.2379,-0.976 2.02,-1.078 0.234,-0.04 0.476,-0.07 0.7179,-0.07 0.5551,0.01 1.11,0.06 1.6571,0.145 0.047,0 0.0929,0 0.144,0 0.168,0.02 0.336,0.05 0.504,0.07 0.145,0.05 0.285,0.09 0.4299,0.144 0.121,0.02 0.242,0.04 0.3591,0.07 h 0.0739 z m 15.2621,0 v -2.664 c -0.383,-0.192 -0.957,-0.336 -1.726,-0.43 -0.3091,-0.06 -0.6221,-0.109 -0.9341,-0.145 -0.3869,-0.05 -0.7229,-0.07 -1.0119,-0.07 -4.5121,0 -6.765,2.352 -6.765,7.059 v 13.75 h -3.313 v 1.726 l 3.313,1.442 1.511,4.968 h 2.0159 v -5.402 h 6.6951 v -2.734 h -6.6951 v -13.61 c -0.0119,-0.406 0.0121,-0.816 0.0701,-1.222 0.0979,-0.434 0.2419,-0.84 0.4339,-1.223 0.1371,-0.262 0.3051,-0.504 0.504,-0.723 0.5191,-0.589 1.2341,-0.976 2.015,-1.078 0.2391,-0.04 0.481,-0.07 0.7191,-0.07 0.5589,0.01 1.1089,0.06 1.6559,0.145 0.028,0 0.0511,0 0.0751,0 0.1909,0.02 0.3819,0.05 0.5739,0.07 0.1441,0.05 0.289,0.09 0.433,0.144 0.121,0.02 0.2431,0.04 0.36,0.07 h 0.0701 z m -32.039,8.711 c 0,-3.789 -0.961,-6.743 -2.879,-8.856 -1.433,-1.578 -3.3631,-2.621 -5.4731,-2.949 -0.7849,-0.145 -1.5779,-0.215 -2.375,-0.219 -1.097,0 -2.1909,0.18 -3.2419,0.504 -0.7771,0.219 -1.5271,0.531 -2.2301,0.938 -1.4879,0.878 -2.707,2.148 -3.528,3.671 -0.0779,0.165 -0.1479,0.332 -0.2139,0.504 -0.528,1.118 -0.8911,2.305 -1.082,3.528 -0.153,0.953 -0.2231,1.914 -0.2151,2.879 0,2.882 0.5511,5.257 1.656,7.129 0.3241,0.589 0.711,1.144 1.1521,1.656 1.8709,2.113 4.489,3.168 7.8479,3.168 1.168,0 2.336,-0.164 3.4531,-0.504 1.649,-0.496 3.117,-1.442 4.25,-2.735 1.1519,-1.324 1.9689,-2.906 2.375,-4.609 0.289,-1.105 0.457,-2.281 0.504,-3.527 0.004,-0.192 0.004,-0.383 0,-0.578 z m 56.5939,0 c 0,-3.789 -0.961,-6.743 -2.879,-8.856 -1.438,-1.578 -3.3669,-2.621 -5.4729,-2.949 -0.785,-0.145 -1.582,-0.215 -2.379,-0.219 -1.097,0 -2.1871,0.18 -3.238,0.504 -0.7811,0.219 -1.5311,0.531 -2.23,0.938 -1.4651,0.89 -2.657,2.16 -3.457,3.671 -0.1021,0.165 -0.196,0.332 -0.2901,0.504 -0.5269,1.118 -0.89,2.305 -1.0779,3.528 -0.1521,0.953 -0.2261,1.914 -0.218,2.879 0,2.882 0.554,5.257 1.6559,7.129 0.328,0.589 0.711,1.144 1.1521,1.656 1.871,2.113 4.4879,3.168 7.8479,3.168 1.172,0 2.336,-0.164 3.457,-0.504 1.644,-0.496 3.1171,-1.442 4.25,-2.735 1.1481,-1.324 1.965,-2.906 2.375,-4.609 0.289,-1.105 0.457,-2.281 0.504,-3.527 0,-0.192 0,-0.383 0,-0.578 z m -74.235,0 c 0.0121,-0.844 0.0861,-1.684 0.2191,-2.52 0.2379,-1.773 0.7659,-3.191 1.582,-4.246 1.153,-1.535 2.879,-2.305 5.1839,-2.305 0.7301,0 1.457,0.09 2.16,0.289 1.23,0.309 2.3161,1.016 3.0981,2.016 0.8629,1.152 1.414,2.687 1.6559,4.605 0.0661,0.719 0.0901,1.442 0.0701,2.161 0,1.875 -0.2381,3.457 -0.7191,4.754 -0.2339,0.695 -0.5739,1.351 -1.0069,1.945 -0.8871,1.144 -2.1721,1.918 -3.602,2.156 -0.547,0.102 -1.1021,0.149 -1.6561,0.145 -0.7029,0 -1.4059,-0.102 -2.086,-0.286 -1.2579,-0.285 -2.379,-0.996 -3.168,-2.015 -0.481,-0.656 -0.8439,-1.387 -1.082,-2.16 -0.2379,-0.672 -0.4059,-1.418 -0.504,-2.235 -0.0939,-0.761 -0.145,-1.531 -0.145,-2.304 z m 56.5941,0 c 0.0119,-0.844 0.082,-1.684 0.2149,-2.52 0.2421,-1.773 0.7701,-3.191 1.586,-4.246 1.1521,-1.535 2.879,-2.305 5.1841,-2.305 0.7299,0 1.457,0.09 2.16,0.289 1.226,0.309 2.316,1.016 3.0929,2.016 0.8681,1.152 1.418,2.687 1.6571,4.605 0.066,0.719 0.09,1.442 0.0739,2.161 0,1.875 -0.242,3.457 -0.7229,4.754 -0.2341,0.695 -0.574,1.351 -1.0081,1.945 -0.8819,1.144 -2.168,1.918 -3.597,2.156 -0.547,0.102 -1.1019,0.149 -1.6559,0.145 -0.7081,0 -1.407,-0.102 -2.09,-0.286 -1.231,-0.3 -2.3251,-1.011 -3.0941,-2.015 -0.5039,-0.653 -0.895,-1.383 -1.1519,-2.16 -0.2431,-0.672 -0.4111,-1.418 -0.504,-2.235 -0.098,-0.761 -0.145,-1.531 -0.145,-2.304 z m -75.168,9 c -0.629,-0.01 -1.2581,-0.08 -1.871,-0.215 -0.7231,-0.145 -1.3671,-0.36 -1.9451,-0.649 -0.508,-0.32 -0.946,-0.734 -1.297,-1.222 -0.957,-1.2 -1.4879,-3.121 -1.582,-5.762 -0.008,-0.383 -0.008,-0.766 0,-1.152 -0.0159,-0.793 0.008,-1.586 0.0701,-2.375 0.2419,-2.063 0.746,-3.602 1.5119,-4.61 0.664,-0.828 1.5701,-1.433 2.5941,-1.726 0.5739,-0.192 1.222,-0.313 1.9449,-0.36 0.2381,0 0.4771,0 0.719,0 0.656,0 1.3121,0.102 1.9411,0.289 1.1559,0.336 2.1519,1.078 2.8089,2.086 0.4371,0.645 0.7771,1.348 1.0081,2.09 0.386,1.293 0.578,2.832 0.578,4.606 0.019,0.793 -0.004,1.586 -0.0751,2.379 -0.2379,1.726 -0.6709,3.117 -1.293,4.175 -0.0699,0.08 -0.144,0.145 -0.218,0.215 -0.778,1.067 -1.9379,1.789 -3.239,2.016 -0.543,0.129 -1.097,0.203 -1.6559,0.215 z" /></g></g></svg>
